<mxfile host="app.diagrams.net" modified="2023-11-24T01:21:24.907Z" agent="Mozilla/5.0 (Macintosh; Intel Mac OS X 10_15_7) AppleWebKit/537.36 (KHTML, like Gecko) Chrome/119.0.0.0 Safari/537.36" etag="r_hTTLlpdwIaI1U73u4_" version="22.1.3" type="device">
  <diagram name="Page-1" id="7LtZnpKmAx-y5y-WDQuI">
    <mxGraphModel dx="1712" dy="647" grid="1" gridSize="10" guides="1" tooltips="1" connect="1" arrows="1" fold="1" page="1" pageScale="1" pageWidth="850" pageHeight="1100" math="0" shadow="0">
      <root>
        <mxCell id="0" />
        <mxCell id="1" parent="0" />
        <mxCell id="D-fkSum0nlh9nLF340kY-5" value="&lt;font style=&quot;font-size: 12px;&quot;&gt;CHIR&lt;/font&gt;&lt;font style=&quot;&quot;&gt;&lt;br&gt;&lt;/font&gt;" style="rounded=1;whiteSpace=wrap;html=1;fillColor=#d5e8d4;strokeColor=#82b366;strokeWidth=2;arcSize=50;" parent="1" vertex="1">
          <mxGeometry x="-382" y="108" width="45.5" height="30" as="geometry" />
        </mxCell>
        <mxCell id="D-fkSum0nlh9nLF340kY-14" value="&lt;h1&gt;&lt;span style=&quot;font-size: 14px;&quot;&gt;Mint on Demand&lt;/span&gt;&lt;/h1&gt;&lt;p&gt;New CHIR treasury token purchased and minted on demand in exchange for taking a position within the Pachira Tree system&lt;/p&gt;" style="text;html=1;strokeColor=none;fillColor=none;spacing=5;spacingTop=-20;whiteSpace=wrap;overflow=hidden;rounded=0;" parent="1" vertex="1">
          <mxGeometry x="-590" y="100" width="180" height="130" as="geometry" />
        </mxCell>
        <mxCell id="D-fkSum0nlh9nLF340kY-15" value="&lt;h1&gt;&lt;span style=&quot;font-size: 14px;&quot;&gt;Burn to Redeem&lt;/span&gt;&lt;/h1&gt;&lt;p&gt;CHIR treasury token is burned in exchange for native tokens&amp;nbsp;&lt;/p&gt;" style="text;html=1;strokeColor=none;fillColor=none;spacing=5;spacingTop=-20;whiteSpace=wrap;overflow=hidden;rounded=0;" parent="1" vertex="1">
          <mxGeometry x="-590" y="290" width="190" height="90" as="geometry" />
        </mxCell>
        <mxCell id="D-fkSum0nlh9nLF340kY-16" value="&lt;font style=&quot;&quot;&gt;CHIR&lt;br&gt;&lt;/font&gt;" style="rounded=1;whiteSpace=wrap;html=1;fillColor=#f8cecc;strokeColor=#b85450;strokeWidth=2;arcSize=50;" parent="1" vertex="1">
          <mxGeometry x="-380" y="330" width="45.5" height="30" as="geometry" />
        </mxCell>
        <mxCell id="D-fkSum0nlh9nLF340kY-19" value="" style="curved=1;endArrow=classic;html=1;rounded=0;exitX=0.5;exitY=1;exitDx=0;exitDy=0;entryX=1;entryY=0.5;entryDx=0;entryDy=0;" parent="1" target="D-fkSum0nlh9nLF340kY-16" edge="1">
          <mxGeometry width="50" height="50" relative="1" as="geometry">
            <mxPoint x="-280" y="280" as="sourcePoint" />
            <mxPoint x="-340" y="410" as="targetPoint" />
            <Array as="points">
              <mxPoint x="-280" y="350" />
            </Array>
          </mxGeometry>
        </mxCell>
        <mxCell id="SHBEONOgHuSflzrqAp8C-2" value="&lt;br&gt;(CHIR, TKN1, TKN2, ...)" style="rounded=1;whiteSpace=wrap;html=1;fillColor=#dae8fc;strokeColor=#6c8ebf;strokeWidth=2;" parent="1" vertex="1">
          <mxGeometry x="-364.5" y="185" width="174.5" height="95" as="geometry" />
        </mxCell>
        <mxCell id="SHBEONOgHuSflzrqAp8C-3" value="&lt;font style=&quot;font-size: 14px;&quot;&gt;&lt;b&gt;Pachira Tree System&lt;/b&gt;&lt;/font&gt;" style="text;html=1;strokeColor=none;fillColor=none;align=center;verticalAlign=middle;whiteSpace=wrap;rounded=0;" parent="1" vertex="1">
          <mxGeometry x="-348.62" y="200" width="142.75" height="30" as="geometry" />
        </mxCell>
        <mxCell id="SHBEONOgHuSflzrqAp8C-6" value="" style="curved=1;endArrow=classic;html=1;rounded=0;exitX=1;exitY=0.5;exitDx=0;exitDy=0;entryX=0.5;entryY=0;entryDx=0;entryDy=0;" parent="1" source="D-fkSum0nlh9nLF340kY-5" target="SHBEONOgHuSflzrqAp8C-2" edge="1">
          <mxGeometry width="50" height="50" relative="1" as="geometry">
            <mxPoint x="-280" y="130" as="sourcePoint" />
            <mxPoint x="-160" y="90" as="targetPoint" />
            <Array as="points">
              <mxPoint x="-270" y="120" />
            </Array>
          </mxGeometry>
        </mxCell>
      </root>
    </mxGraphModel>
  </diagram>
</mxfile>
